<?xml version="1.0" encoding="UTF-8"?>
<svg xmlns="http://www.w3.org/2000/svg" xmlns:xlink="http://www.w3.org/1999/xlink" width="1994.400024pt" height="808.799988pt" viewBox="0 0 1994.400024 808.799988" version="1.1">
<defs>
<filter id="alpha" filterUnits="objectBoundingBox" x="0%" y="0%" width="100%" height="100%">
  <feColorMatrix type="matrix" in="SourceGraphic" values="0 0 0 0 1 0 0 0 0 1 0 0 0 0 1 0 0 0 1 0"/>
</filter>
<clipPath id="clip2">
  <path d="M 0 808.800781 L 1994.398438 808.800781 L 1994.398438 0 L 0 0 Z M 0 808.800781 "/>
</clipPath>
<clipPath id="clip1">
  <rect width="1995" height="809"/>
</clipPath>
<g id="surface10" clip-path="url(#clip1)">
<g clip-path="url(#clip2)" clip-rule="nonzero">
<path style=" stroke:none;fill-rule:nonzero;fill:rgb(0%,0%,0%);fill-opacity:0.54;" d="M 0 808.800781 L 1994.398438 808.800781 L 1994.398438 0 L 0 0 Z M 0 808.800781 "/>
</g>
</g>
<mask id="mask0">
  <g filter="url(#alpha)">
<use xlink:href="#surface10"/>
  </g>
</mask>
<clipPath id="clip4">
  <path d="M 0 808.800781 L 1994.398438 808.800781 L 1994.398438 0 L 0 0 Z M 0 808.800781 "/>
</clipPath>
<clipPath id="clip6">
  <path d="M 0 808.800781 L 1994.398438 808.800781 L 1994.398438 0 L 0 0 Z M 0 808.800781 "/>
</clipPath>
<clipPath id="clip5">
  <rect width="1995" height="809"/>
</clipPath>
<g id="surface69" clip-path="url(#clip5)">
<g clip-path="url(#clip6)" clip-rule="nonzero">
<path style=" stroke:none;fill-rule:nonzero;fill:rgb(35%,35%,35%);fill-opacity:1;" d="M 600.800781 274.398438 L 608.800781 274.398438 C 610.574219 274.398438 612 275.828125 612 277.601562 C 612 279.371094 610.574219 280.800781 608.800781 280.800781 L 600.800781 280.800781 C 599.027344 280.800781 597.601562 279.371094 597.601562 277.601562 C 597.601562 275.828125 599.027344 274.398438 600.800781 274.398438 Z M 600.800781 274.398438 "/>
</g>
</g>
<clipPath id="clip3">
  <rect width="1995" height="809"/>
</clipPath>
<g id="surface8" clip-path="url(#clip3)">
<g clip-path="url(#clip4)" clip-rule="nonzero">
<use xlink:href="#surface69"/>
</g>
</g>
<clipPath id="clip8">
  <path d="M 0 808.800781 L 1994.398438 808.800781 L 1994.398438 0 L 0 0 Z M 0 808.800781 "/>
</clipPath>
<clipPath id="clip7">
  <rect width="1995" height="809"/>
</clipPath>
<g id="surface17" clip-path="url(#clip7)">
<g clip-path="url(#clip8)" clip-rule="nonzero">
<path style=" stroke:none;fill-rule:nonzero;fill:rgb(0%,0%,0%);fill-opacity:0.54;" d="M 0 808.800781 L 1994.398438 808.800781 L 1994.398438 0 L 0 0 Z M 0 808.800781 "/>
</g>
</g>
<mask id="mask1">
  <g filter="url(#alpha)">
<use xlink:href="#surface17"/>
  </g>
</mask>
<clipPath id="clip10">
  <path d="M 0 808.800781 L 1994.398438 808.800781 L 1994.398438 0 L 0 0 Z M 0 808.800781 "/>
</clipPath>
<clipPath id="clip12">
  <path d="M 0 808.800781 L 1994.398438 808.800781 L 1994.398438 0 L 0 0 Z M 0 808.800781 "/>
</clipPath>
<clipPath id="clip11">
  <rect width="1995" height="809"/>
</clipPath>
<g id="surface85" clip-path="url(#clip11)">
<g clip-path="url(#clip12)" clip-rule="nonzero">
<path style=" stroke:none;fill-rule:nonzero;fill:rgb(35%,35%,35%);fill-opacity:1;" d="M 600.800781 114.398438 L 608.800781 114.398438 C 610.574219 114.398438 612 115.828125 612 117.601562 C 612 119.371094 610.574219 120.800781 608.800781 120.800781 L 600.800781 120.800781 C 599.027344 120.800781 597.601562 119.371094 597.601562 117.601562 C 597.601562 115.828125 599.027344 114.398438 600.800781 114.398438 Z M 600.800781 114.398438 "/>
</g>
</g>
<clipPath id="clip9">
  <rect width="1995" height="809"/>
</clipPath>
<g id="surface15" clip-path="url(#clip9)">
<g clip-path="url(#clip10)" clip-rule="nonzero">
<use xlink:href="#surface85"/>
</g>
</g>
<clipPath id="clip14">
  <path d="M 0 808.800781 L 1994.398438 808.800781 L 1994.398438 0 L 0 0 Z M 0 808.800781 "/>
</clipPath>
<clipPath id="clip13">
  <rect width="1995" height="809"/>
</clipPath>
<g id="surface24" clip-path="url(#clip13)">
<g clip-path="url(#clip14)" clip-rule="nonzero">
<path style=" stroke:none;fill-rule:nonzero;fill:rgb(0%,0%,0%);fill-opacity:0.54;" d="M 0 808.800781 L 1994.398438 808.800781 L 1994.398438 0 L 0 0 Z M 0 808.800781 "/>
</g>
</g>
<mask id="mask2">
  <g filter="url(#alpha)">
<use xlink:href="#surface24"/>
  </g>
</mask>
<clipPath id="clip16">
  <path d="M 0 808.800781 L 1994.398438 808.800781 L 1994.398438 0 L 0 0 Z M 0 808.800781 "/>
</clipPath>
<clipPath id="clip18">
  <path d="M 0 808.800781 L 1994.398438 808.800781 L 1994.398438 0 L 0 0 Z M 0 808.800781 "/>
</clipPath>
<clipPath id="clip17">
  <rect width="1995" height="809"/>
</clipPath>
<g id="surface101" clip-path="url(#clip17)">
<g clip-path="url(#clip18)" clip-rule="nonzero">
<path style=" stroke:none;fill-rule:nonzero;fill:rgb(35%,35%,35%);fill-opacity:1;" d="M 600.800781 146.398438 L 608.800781 146.398438 C 610.574219 146.398438 612 147.828125 612 149.601562 C 612 151.371094 610.574219 152.800781 608.800781 152.800781 L 600.800781 152.800781 C 599.027344 152.800781 597.601562 151.371094 597.601562 149.601562 C 597.601562 147.828125 599.027344 146.398438 600.800781 146.398438 Z M 600.800781 146.398438 "/>
</g>
</g>
<clipPath id="clip15">
  <rect width="1995" height="809"/>
</clipPath>
<g id="surface22" clip-path="url(#clip15)">
<g clip-path="url(#clip16)" clip-rule="nonzero">
<use xlink:href="#surface101"/>
</g>
</g>
<clipPath id="clip20">
  <path d="M 0 808.800781 L 1994.398438 808.800781 L 1994.398438 0 L 0 0 Z M 0 808.800781 "/>
</clipPath>
<clipPath id="clip19">
  <rect width="1995" height="809"/>
</clipPath>
<g id="surface31" clip-path="url(#clip19)">
<g clip-path="url(#clip20)" clip-rule="nonzero">
<path style=" stroke:none;fill-rule:nonzero;fill:rgb(0%,0%,0%);fill-opacity:0.54;" d="M 0 808.800781 L 1994.398438 808.800781 L 1994.398438 0 L 0 0 Z M 0 808.800781 "/>
</g>
</g>
<mask id="mask3">
  <g filter="url(#alpha)">
<use xlink:href="#surface31"/>
  </g>
</mask>
<clipPath id="clip22">
  <path d="M 0 808.800781 L 1994.398438 808.800781 L 1994.398438 0 L 0 0 Z M 0 808.800781 "/>
</clipPath>
<clipPath id="clip24">
  <path d="M 0 808.800781 L 1994.398438 808.800781 L 1994.398438 0 L 0 0 Z M 0 808.800781 "/>
</clipPath>
<clipPath id="clip23">
  <rect width="1995" height="809"/>
</clipPath>
<g id="surface117" clip-path="url(#clip23)">
<g clip-path="url(#clip24)" clip-rule="nonzero">
<path style=" stroke:none;fill-rule:nonzero;fill:rgb(35%,35%,35%);fill-opacity:1;" d="M 600.800781 178.398438 L 608.800781 178.398438 C 610.574219 178.398438 612 179.828125 612 181.601562 C 612 183.371094 610.574219 184.800781 608.800781 184.800781 L 600.800781 184.800781 C 599.027344 184.800781 597.601562 183.371094 597.601562 181.601562 C 597.601562 179.828125 599.027344 178.398438 600.800781 178.398438 Z M 600.800781 178.398438 "/>
</g>
</g>
<clipPath id="clip21">
  <rect width="1995" height="809"/>
</clipPath>
<g id="surface29" clip-path="url(#clip21)">
<g clip-path="url(#clip22)" clip-rule="nonzero">
<use xlink:href="#surface117"/>
</g>
</g>
<clipPath id="clip26">
  <path d="M 0 808.800781 L 1994.398438 808.800781 L 1994.398438 0 L 0 0 Z M 0 808.800781 "/>
</clipPath>
<clipPath id="clip25">
  <rect width="1995" height="809"/>
</clipPath>
<g id="surface38" clip-path="url(#clip25)">
<g clip-path="url(#clip26)" clip-rule="nonzero">
<path style=" stroke:none;fill-rule:nonzero;fill:rgb(0%,0%,0%);fill-opacity:0.54;" d="M 0 808.800781 L 1994.398438 808.800781 L 1994.398438 0 L 0 0 Z M 0 808.800781 "/>
</g>
</g>
<mask id="mask4">
  <g filter="url(#alpha)">
<use xlink:href="#surface38"/>
  </g>
</mask>
<clipPath id="clip28">
  <path d="M 0 808.800781 L 1994.398438 808.800781 L 1994.398438 0 L 0 0 Z M 0 808.800781 "/>
</clipPath>
<clipPath id="clip30">
  <path d="M 0 808.800781 L 1994.398438 808.800781 L 1994.398438 0 L 0 0 Z M 0 808.800781 "/>
</clipPath>
<clipPath id="clip29">
  <rect width="1995" height="809"/>
</clipPath>
<g id="surface133" clip-path="url(#clip29)">
<g clip-path="url(#clip30)" clip-rule="nonzero">
<path style=" stroke:none;fill-rule:nonzero;fill:rgb(35%,35%,35%);fill-opacity:1;" d="M 600.800781 210.398438 L 608.800781 210.398438 C 610.574219 210.398438 612 211.828125 612 213.601562 C 612 215.371094 610.574219 216.800781 608.800781 216.800781 L 600.800781 216.800781 C 599.027344 216.800781 597.601562 215.371094 597.601562 213.601562 C 597.601562 211.828125 599.027344 210.398438 600.800781 210.398438 Z M 600.800781 210.398438 "/>
</g>
</g>
<clipPath id="clip27">
  <rect width="1995" height="809"/>
</clipPath>
<g id="surface36" clip-path="url(#clip27)">
<g clip-path="url(#clip28)" clip-rule="nonzero">
<use xlink:href="#surface133"/>
</g>
</g>
<clipPath id="clip32">
  <path d="M 0 808.800781 L 1994.398438 808.800781 L 1994.398438 0 L 0 0 Z M 0 808.800781 "/>
</clipPath>
<clipPath id="clip31">
  <rect width="1995" height="809"/>
</clipPath>
<g id="surface45" clip-path="url(#clip31)">
<g clip-path="url(#clip32)" clip-rule="nonzero">
<path style=" stroke:none;fill-rule:nonzero;fill:rgb(0%,0%,0%);fill-opacity:0.54;" d="M 0 808.800781 L 1994.398438 808.800781 L 1994.398438 0 L 0 0 Z M 0 808.800781 "/>
</g>
</g>
<mask id="mask5">
  <g filter="url(#alpha)">
<use xlink:href="#surface45"/>
  </g>
</mask>
<clipPath id="clip34">
  <path d="M 0 808.800781 L 1994.398438 808.800781 L 1994.398438 0 L 0 0 Z M 0 808.800781 "/>
</clipPath>
<clipPath id="clip36">
  <path d="M 0 808.800781 L 1994.398438 808.800781 L 1994.398438 0 L 0 0 Z M 0 808.800781 "/>
</clipPath>
<clipPath id="clip35">
  <rect width="1995" height="809"/>
</clipPath>
<g id="surface149" clip-path="url(#clip35)">
<g clip-path="url(#clip36)" clip-rule="nonzero">
<path style=" stroke:none;fill-rule:nonzero;fill:rgb(35%,35%,35%);fill-opacity:1;" d="M 600.800781 242.398438 L 608.800781 242.398438 C 610.574219 242.398438 612 243.828125 612 245.601562 C 612 247.371094 610.574219 248.800781 608.800781 248.800781 L 600.800781 248.800781 C 599.027344 248.800781 597.601562 247.371094 597.601562 245.601562 C 597.601562 243.828125 599.027344 242.398438 600.800781 242.398438 Z M 600.800781 242.398438 "/>
</g>
</g>
<clipPath id="clip33">
  <rect width="1995" height="809"/>
</clipPath>
<g id="surface43" clip-path="url(#clip33)">
<g clip-path="url(#clip34)" clip-rule="nonzero">
<use xlink:href="#surface149"/>
</g>
</g>
<clipPath id="clip38">
  <path d="M 0 808.800781 L 1994.398438 808.800781 L 1994.398438 0 L 0 0 Z M 0 808.800781 "/>
</clipPath>
<clipPath id="clip37">
  <rect width="1995" height="809"/>
</clipPath>
<g id="surface52" clip-path="url(#clip37)">
<g clip-path="url(#clip38)" clip-rule="nonzero">
<path style=" stroke:none;fill-rule:nonzero;fill:rgb(0%,0%,0%);fill-opacity:0.54;" d="M 0 808.800781 L 1994.398438 808.800781 L 1994.398438 0 L 0 0 Z M 0 808.800781 "/>
</g>
</g>
<mask id="mask6">
  <g filter="url(#alpha)">
<use xlink:href="#surface52"/>
  </g>
</mask>
<clipPath id="clip40">
  <path d="M 0 808.800781 L 1994.398438 808.800781 L 1994.398438 0 L 0 0 Z M 0 808.800781 "/>
</clipPath>
<clipPath id="clip42">
  <path d="M 0 808.800781 L 1994.398438 808.800781 L 1994.398438 0 L 0 0 Z M 0 808.800781 "/>
</clipPath>
<clipPath id="clip41">
  <rect width="1995" height="809"/>
</clipPath>
<g id="surface165" clip-path="url(#clip41)">
<g clip-path="url(#clip42)" clip-rule="nonzero">
<path style=" stroke:none;fill-rule:nonzero;fill:rgb(35%,35%,35%);fill-opacity:1;" d="M 600.800781 306.398438 L 608.800781 306.398438 C 610.574219 306.398438 612 307.828125 612 309.601562 C 612 311.371094 610.574219 312.800781 608.800781 312.800781 L 600.800781 312.800781 C 599.027344 312.800781 597.601562 311.371094 597.601562 309.601562 C 597.601562 307.828125 599.027344 306.398438 600.800781 306.398438 Z M 600.800781 306.398438 "/>
</g>
</g>
<clipPath id="clip39">
  <rect width="1995" height="809"/>
</clipPath>
<g id="surface50" clip-path="url(#clip39)">
<g clip-path="url(#clip40)" clip-rule="nonzero">
<use xlink:href="#surface165"/>
</g>
</g>
<clipPath id="clip44">
  <path d="M 0 808.800781 L 1994.398438 808.800781 L 1994.398438 0 L 0 0 Z M 0 808.800781 "/>
</clipPath>
<clipPath id="clip43">
  <rect width="1995" height="809"/>
</clipPath>
<g id="surface59" clip-path="url(#clip43)">
<g clip-path="url(#clip44)" clip-rule="nonzero">
<path style=" stroke:none;fill-rule:nonzero;fill:rgb(0%,0%,0%);fill-opacity:0.54;" d="M 0 808.800781 L 1994.398438 808.800781 L 1994.398438 0 L 0 0 Z M 0 808.800781 "/>
</g>
</g>
<mask id="mask7">
  <g filter="url(#alpha)">
<use xlink:href="#surface59"/>
  </g>
</mask>
<clipPath id="clip46">
  <path d="M 0 808.800781 L 1994.398438 808.800781 L 1994.398438 0 L 0 0 Z M 0 808.800781 "/>
</clipPath>
<clipPath id="clip48">
  <path d="M 0 808.800781 L 1994.398438 808.800781 L 1994.398438 0 L 0 0 Z M 0 808.800781 "/>
</clipPath>
<clipPath id="clip47">
  <rect width="1995" height="809"/>
</clipPath>
<g id="surface58" clip-path="url(#clip47)">
<g clip-path="url(#clip48)" clip-rule="nonzero">
<path style=" stroke:none;fill-rule:nonzero;fill:rgb(35%,35%,35%);fill-opacity:1;" d="M 600.800781 338.398438 L 608.800781 338.398438 C 610.574219 338.398438 612 339.828125 612 341.601562 C 612 343.371094 610.574219 344.800781 608.800781 344.800781 L 600.800781 344.800781 C 599.027344 344.800781 597.601562 343.371094 597.601562 341.601562 C 597.601562 339.828125 599.027344 338.398438 600.800781 338.398438 Z M 600.800781 338.398438 "/>
</g>
</g>
<clipPath id="clip45">
  <rect width="1995" height="809"/>
</clipPath>
<g id="surface57" clip-path="url(#clip45)">
<g clip-path="url(#clip46)" clip-rule="nonzero">
<use xlink:href="#surface58"/>
</g>
</g>
</defs>
<g id="surface1">
<path style="fill-rule:nonzero;fill:rgb(39%,39%,39%);stroke-opacity:1;stroke-miterlimit:4;" d="M 1188.796875 100.800781 L 409.605469 100.800781 C 403.417969 100.800781 397.816406 103.304688 393.761719 107.359375 C 389.707031 111.410156 387.199219 117.011719 387.199219 123.195312 L 387.199219 656.804688 C 387.199219 662.988281 389.707031 668.585938 393.765625 672.640625 C 397.820312 676.691406 403.417969 679.199219 409.605469 679.199219 L 1188.796875 679.199219 C 1194.984375 679.199219 1200.582031 676.695312 1204.636719 672.640625 C 1208.691406 668.589844 1211.199219 662.988281 1211.199219 656.804688 L 1211.199219 123.195312 C 1211.199219 117.011719 1208.691406 111.414062 1204.636719 107.359375 C 1200.582031 103.308594 1194.980469 100.800781 1188.796875 100.800781 Z M 1188.796875 100.800781 "/>
<path style="fill-rule:nonzero;fill:rgb(25%,25%,25%);stroke-opacity:1;stroke-miterlimit:4;" d="M 1150.40625 150.398438 L 447.195312 150.398438 C 444.546875 150.398438 442.144531 151.476562 440.410156 153.214844 C 438.675781 154.953125 437.601562 157.355469 437.601562 160.003906 L 437.601562 557.59375 C 437.601562 560.246094 438.671875 562.648438 440.410156 564.386719 C 442.144531 566.125 444.542969 567.199219 447.195312 567.199219 L 1150.40625 567.199219 C 1153.054688 567.199219 1155.453125 566.125 1157.191406 564.382812 C 1158.925781 562.644531 1160 560.246094 1160 557.59375 L 1160 160.003906 C 1160 157.351562 1158.925781 154.953125 1157.191406 153.214844 C 1155.453125 151.476562 1153.054688 150.398438 1150.40625 150.398438 Z M 1150.40625 150.398438 "/>
<path style="fill-rule:nonzero;fill:rgb(39%,39%,39%);stroke-opacity:1;stroke-miterlimit:4;" d="M 858.679688 679.199219 L 740.519531 679.199219 L 732.542969 782.398438 L 866.65625 782.398438 Z M 858.679688 679.199219 "/>
<path style="fill-rule:nonzero;fill:rgb(39%,39%,39%);stroke-opacity:1;stroke-miterlimit:4;" d="M 915.199219 -805.601562 L 684 -805.601562 C 683.78125 -805.601562 683.582031 -805.511719 683.4375 -805.367188 C 683.289062 -805.21875 683.199219 -805.015625 683.199219 -804.792969 L 683.199219 -794 C 683.199219 -790.796875 684.5 -787.898438 686.597656 -785.796875 C 688.699219 -783.699219 691.601562 -782.398438 694.804688 -782.398438 L 904.394531 -782.398438 C 907.597656 -782.398438 910.5 -783.699219 912.601562 -785.796875 C 914.699219 -787.898438 916 -790.796875 916 -794 L 916 -804.792969 C 916 -805.015625 915.914062 -805.21875 915.765625 -805.367188 C 915.621094 -805.511719 915.417969 -805.601562 915.199219 -805.601562 Z M 915.199219 -805.601562 " transform="matrix(1,0,0,-1,0,0)"/>
<path style="fill:none;stroke-width:6.4;stroke-linecap:butt;stroke-linejoin:miter;stroke:rgb(11%,11%,11%);stroke-opacity:1;stroke-miterlimit:4;" d="M 814.398438 627.601562 C 814.398438 635.773438 807.773438 642.398438 799.601562 642.398438 C 791.425781 642.398438 784.800781 635.773438 784.800781 627.601562 C 784.800781 619.425781 791.425781 612.800781 799.601562 612.800781 C 807.773438 612.800781 814.398438 619.425781 814.398438 627.601562 Z M 814.398438 627.601562 "/>
<path style="fill-rule:nonzero;fill:rgb(39%,39%,39%);stroke-opacity:1;stroke-miterlimit:4;" d="M 330.398438 494.398438 L 450.398438 494.398438 C 461.035156 494.398438 469.601562 502.964844 469.601562 513.601562 L 469.601562 786.398438 C 469.601562 797.035156 461.035156 805.601562 450.398438 805.601562 L 330.398438 805.601562 C 319.761719 805.601562 311.199219 797.035156 311.199219 786.398438 L 311.199219 513.601562 C 311.199219 502.964844 319.761719 494.398438 330.398438 494.398438 Z M 330.398438 494.398438 "/>
<path style="fill-rule:nonzero;fill:rgb(11%,11%,11%);stroke-opacity:1;stroke-miterlimit:4;" d="M 311.199219 529.601562 L 469.601562 529.601562 L 469.601562 759.441406 L 311.199219 759.441406 Z M 311.199219 529.601562 "/>
<path style=" stroke:none;fill-rule:nonzero;fill:rgb(11%,11%,11%);fill-opacity:1;" d="M 356 508.800781 L 425.601562 508.800781 C 427.371094 508.800781 428.800781 510.226562 428.800781 512 C 428.800781 513.773438 427.371094 515.199219 425.601562 515.199219 L 356 515.199219 C 354.226562 515.199219 352.800781 513.773438 352.800781 512 C 352.800781 510.226562 354.226562 508.800781 356 508.800781 Z M 356 508.800781 "/>
<path style=" stroke:none;fill-rule:nonzero;fill:rgb(11%,11%,11%);fill-opacity:1;" d="M 390.71875 772.800781 C 395.773438 772.800781 399.839844 776.867188 399.839844 781.921875 C 399.839844 786.972656 395.773438 791.039062 390.71875 791.039062 C 385.667969 791.039062 381.601562 786.972656 381.601562 781.921875 C 381.601562 776.867188 385.667969 772.800781 390.71875 772.800781 Z M 390.71875 772.800781 "/>
<path style="fill-rule:nonzero;fill:rgb(25%,25%,25%);stroke-opacity:1;stroke-miterlimit:4;" d="M 368 644 C 368 650.628906 362.628906 656 356 656 C 349.371094 656 344 650.628906 344 644 C 344 637.371094 349.371094 632 356 632 C 362.628906 632 368 637.371094 368 644 Z M 368 644 "/>
<path style=" stroke:none;fill-rule:nonzero;fill:rgb(100%,100%,100%);fill-opacity:1;" d="M 387.199219 623.199219 L 436.800781 623.199219 C 438.574219 623.199219 440 624.628906 440 626.398438 C 440 628.171875 438.574219 629.601562 436.800781 629.601562 L 387.199219 629.601562 C 385.425781 629.601562 384 628.171875 384 626.398438 C 384 624.628906 385.425781 623.199219 387.199219 623.199219 Z M 387.199219 623.199219 "/>
<path style=" stroke:none;fill-rule:nonzero;fill:rgb(100%,100%,100%);fill-opacity:1;" d="M 387.199219 640.800781 L 420.800781 640.800781 C 422.574219 640.800781 424 642.226562 424 644 C 424 645.773438 422.574219 647.199219 420.800781 647.199219 L 387.199219 647.199219 C 385.425781 647.199219 384 645.773438 384 644 C 384 642.226562 385.425781 640.800781 387.199219 640.800781 Z M 387.199219 640.800781 "/>
<path style=" stroke:none;fill-rule:nonzero;fill:rgb(100%,100%,100%);fill-opacity:1;" d="M 387.199219 658.398438 L 404.800781 658.398438 C 406.574219 658.398438 408 659.828125 408 661.601562 C 408 663.371094 406.574219 664.800781 404.800781 664.800781 L 387.199219 664.800781 C 385.425781 664.800781 384 663.371094 384 661.601562 C 384 659.828125 385.425781 658.398438 387.199219 658.398438 Z M 387.199219 658.398438 "/>
<path style="fill-rule:nonzero;fill:rgb(20%,20%,20%);stroke-opacity:1;stroke-miterlimit:4;" d="M 352.800781 522.800781 C 352.800781 590.621094 297.820312 645.601562 230 645.601562 C 162.179688 645.601562 107.199219 590.621094 107.199219 522.800781 C 107.199219 454.980469 162.179688 400 230 400 C 297.820312 400 352.800781 454.980469 352.800781 522.800781 Z M 352.800781 522.800781 "/>
<path style="fill-rule:nonzero;fill:rgb(39%,39%,39%);stroke-opacity:1;stroke-miterlimit:4;" d="M 1552.007812 374.398438 L 1004.792969 374.398438 C 998.605469 374.398438 993.007812 376.90625 988.957031 380.960938 C 984.90625 385.015625 982.398438 390.613281 982.398438 396.800781 L 982.398438 749.601562 C 982.398438 755.78125 984.90625 761.382812 988.960938 765.4375 C 993.011719 769.492188 998.609375 772 1004.792969 772 L 1552.007812 772 C 1558.191406 772 1563.789062 769.492188 1567.84375 765.441406 C 1571.894531 761.386719 1574.398438 755.785156 1574.398438 749.601562 L 1574.398438 396.800781 C 1574.398438 390.617188 1571.894531 385.015625 1567.839844 380.960938 C 1563.789062 376.910156 1558.191406 374.398438 1552.007812 374.398438 Z M 1552.007812 374.398438 "/>
<path style="fill-rule:nonzero;fill:rgb(39%,39%,39%);stroke-opacity:1;stroke-miterlimit:4;" d="M 1614.40625 772 L 942.394531 772 C 942.175781 772 941.976562 772.089844 941.835938 772.234375 C 941.6875 772.378906 941.601562 772.578125 941.601562 772.800781 L 941.601562 788.800781 C 941.601562 793.441406 943.480469 797.640625 946.519531 800.679688 C 949.5625 803.71875 953.765625 805.601562 958.40625 805.601562 L 1598.394531 805.601562 C 1603.035156 805.601562 1607.238281 803.71875 1610.277344 800.679688 C 1613.320312 797.640625 1615.199219 793.4375 1615.199219 788.800781 L 1615.199219 772.800781 C 1615.199219 772.578125 1615.109375 772.378906 1614.964844 772.234375 C 1614.820312 772.089844 1614.625 772 1614.40625 772 Z M 1614.40625 772 "/>
<path style="fill-rule:nonzero;fill:rgb(39%,39%,39%);stroke-opacity:1;stroke-miterlimit:4;" d="M 1322.632812 772.359375 L 1233.046875 772.359375 C 1234.605469 776.46875 1237.222656 780.050781 1240.566406 782.78125 C 1244.839844 786.269531 1250.292969 788.359375 1256.234375 788.359375 L 1299.445312 788.359375 C 1305.382812 788.359375 1310.839844 786.269531 1315.109375 782.78125 C 1318.453125 780.050781 1321.074219 776.464844 1322.632812 772.359375 Z M 1322.632812 772.359375 "/>
<path style=" stroke:none;fill-rule:nonzero;fill:rgb(73%,73%,73%);fill-opacity:1;" d="M 1012 408.800781 L 1544.324219 408.800781 C 1547.871094 408.800781 1550.726562 411.65625 1550.726562 415.199219 L 1550.726562 731.878906 C 1550.726562 735.425781 1547.871094 738.28125 1544.324219 738.28125 L 1012 738.28125 C 1008.453125 738.28125 1005.601562 735.425781 1005.601562 731.878906 L 1005.601562 415.199219 C 1005.601562 411.65625 1008.453125 408.800781 1012 408.800781 Z M 1012 408.800781 "/>
<path style=" stroke:none;fill-rule:nonzero;fill:rgb(20%,20%,20%);fill-opacity:1;" d="M 785.601562 157.601562 C 785.601562 159.808594 783.808594 161.601562 781.601562 161.601562 C 779.390625 161.601562 777.601562 159.808594 777.601562 157.601562 C 777.601562 155.390625 779.390625 153.601562 781.601562 153.601562 C 783.808594 153.601562 785.601562 155.390625 785.601562 157.601562 Z M 785.601562 157.601562 "/>
<path style="fill-rule:nonzero;fill:rgb(11%,11%,11%);stroke-opacity:1;stroke-miterlimit:4;" d="M 916 47.199219 L 559.199219 47.199219 L 559.199219 395.203125 C 559.199219 399.621094 560.992188 403.621094 563.886719 406.515625 C 566.78125 409.410156 570.785156 411.199219 575.207031 411.199219 L 899.992188 411.199219 C 904.414062 411.199219 908.414062 409.410156 911.3125 406.515625 C 914.207031 403.617188 916 399.621094 916 395.203125 Z M 916 47.199219 "/>
<path style="fill-rule:nonzero;fill:rgb(39%,39%,39%);stroke-opacity:1;stroke-miterlimit:4;" d="M 899.992188 3.199219 L 575.207031 3.199219 C 570.785156 3.199219 566.785156 4.992188 563.886719 7.886719 C 560.992188 10.78125 559.199219 14.785156 559.199219 19.203125 L 559.199219 40.800781 L 916 40.800781 L 916 19.203125 C 916 14.785156 914.207031 10.785156 911.3125 7.886719 C 908.414062 4.992188 904.414062 3.199219 899.992188 3.199219 Z M 899.992188 3.199219 "/>
<path style=" stroke:none;fill-rule:nonzero;fill:rgb(11%,11%,11%);fill-opacity:1;" d="M 594.398438 22.398438 C 594.398438 26.375 591.175781 29.601562 587.199219 29.601562 C 583.222656 29.601562 580 26.375 580 22.398438 C 580 18.421875 583.222656 15.199219 587.199219 15.199219 C 591.175781 15.199219 594.398438 18.421875 594.398438 22.398438 Z M 594.398438 22.398438 "/>
<path style=" stroke:none;fill-rule:nonzero;fill:rgb(25%,25%,25%);fill-opacity:1;" d="M 618.398438 22.398438 C 618.398438 26.375 615.175781 29.601562 611.199219 29.601562 C 607.222656 29.601562 604 26.375 604 22.398438 C 604 18.421875 607.222656 15.199219 611.199219 15.199219 C 615.175781 15.199219 618.398438 18.421875 618.398438 22.398438 Z M 618.398438 22.398438 "/>
<path style=" stroke:none;fill-rule:nonzero;fill:rgb(73%,73%,73%);fill-opacity:1;" d="M 642.398438 22.398438 C 642.398438 26.375 639.175781 29.601562 635.199219 29.601562 C 631.222656 29.601562 628 26.375 628 22.398438 C 628 18.421875 631.222656 15.199219 635.199219 15.199219 C 639.175781 15.199219 642.398438 18.421875 642.398438 22.398438 Z M 642.398438 22.398438 "/>
<use xlink:href="#surface8" mask="url(#mask0)"/>
<use xlink:href="#surface15" mask="url(#mask1)"/>
<path style=" stroke:none;fill-rule:nonzero;fill:rgb(25%,25%,25%);fill-opacity:1;" d="M 624.800781 114.398438 L 646.398438 114.398438 C 648.167969 114.398438 649.601562 115.832031 649.601562 117.601562 C 649.601562 119.367188 648.167969 120.800781 646.398438 120.800781 L 624.800781 120.800781 C 623.03125 120.800781 621.601562 119.367188 621.601562 117.601562 C 621.601562 115.832031 623.03125 114.398438 624.800781 114.398438 Z M 624.800781 114.398438 "/>
<path style=" stroke:none;fill-rule:nonzero;fill:rgb(73%,73%,73%);fill-opacity:1;" d="M 660.800781 114.398438 L 682.398438 114.398438 C 684.167969 114.398438 685.601562 115.832031 685.601562 117.601562 C 685.601562 119.367188 684.167969 120.800781 682.398438 120.800781 L 660.800781 120.800781 C 659.03125 120.800781 657.601562 119.367188 657.601562 117.601562 C 657.601562 115.832031 659.03125 114.398438 660.800781 114.398438 Z M 660.800781 114.398438 "/>
<path style=" stroke:none;fill-rule:nonzero;fill:rgb(25%,25%,25%);fill-opacity:1;" d="M 696.800781 114.398438 L 736.800781 114.398438 C 738.566406 114.398438 740 115.832031 740 117.601562 C 740 119.367188 738.566406 120.800781 736.800781 120.800781 L 696.800781 120.800781 C 695.03125 120.800781 693.601562 119.367188 693.601562 117.601562 C 693.601562 115.832031 695.03125 114.398438 696.800781 114.398438 Z M 696.800781 114.398438 "/>
<path style=" stroke:none;fill-rule:nonzero;fill:rgb(25%,25%,25%);fill-opacity:1;" d="M 751.199219 114.398438 L 810.398438 114.398438 C 812.167969 114.398438 813.601562 115.832031 813.601562 117.601562 C 813.601562 119.367188 812.167969 120.800781 810.398438 120.800781 L 751.199219 120.800781 C 749.433594 120.800781 748 119.367188 748 117.601562 C 748 115.832031 749.433594 114.398438 751.199219 114.398438 Z M 751.199219 114.398438 "/>
<use xlink:href="#surface22" mask="url(#mask2)"/>
<use xlink:href="#surface29" mask="url(#mask3)"/>
<use xlink:href="#surface36" mask="url(#mask4)"/>
<use xlink:href="#surface43" mask="url(#mask5)"/>
<use xlink:href="#surface50" mask="url(#mask6)"/>
<use xlink:href="#surface57" mask="url(#mask7)"/>
<path style=" stroke:none;fill-rule:nonzero;fill:rgb(25%,25%,25%);fill-opacity:1;" d="M 624.800781 146.398438 L 674.398438 146.398438 C 676.171875 146.398438 677.601562 147.828125 677.601562 149.601562 C 677.601562 151.371094 676.171875 152.800781 674.398438 152.800781 L 624.800781 152.800781 C 623.027344 152.800781 621.601562 151.371094 621.601562 149.601562 C 621.601562 147.828125 623.027344 146.398438 624.800781 146.398438 Z M 624.800781 146.398438 "/>
<path style=" stroke:none;fill-rule:nonzero;fill:rgb(73%,73%,73%);fill-opacity:1;" d="M 688.800781 146.398438 L 778.398438 146.398438 C 780.171875 146.398438 781.601562 147.828125 781.601562 149.601562 C 781.601562 151.371094 780.171875 152.800781 778.398438 152.800781 L 688.800781 152.800781 C 687.027344 152.800781 685.601562 151.371094 685.601562 149.601562 C 685.601562 147.828125 687.027344 146.398438 688.800781 146.398438 Z M 688.800781 146.398438 "/>
<path style=" stroke:none;fill-rule:nonzero;fill:rgb(25%,25%,25%);fill-opacity:1;" d="M 792.800781 146.398438 L 826.398438 146.398438 C 828.171875 146.398438 829.601562 147.828125 829.601562 149.601562 C 829.601562 151.371094 828.171875 152.800781 826.398438 152.800781 L 792.800781 152.800781 C 791.027344 152.800781 789.601562 151.371094 789.601562 149.601562 C 789.601562 147.828125 791.027344 146.398438 792.800781 146.398438 Z M 792.800781 146.398438 "/>
<path style=" stroke:none;fill-rule:nonzero;fill:rgb(73%,73%,73%);fill-opacity:1;" d="M 624.800781 178.398438 L 658.398438 178.398438 C 660.171875 178.398438 661.601562 179.828125 661.601562 181.601562 C 661.601562 183.371094 660.171875 184.800781 658.398438 184.800781 L 624.800781 184.800781 C 623.027344 184.800781 621.601562 183.371094 621.601562 181.601562 C 621.601562 179.828125 623.027344 178.398438 624.800781 178.398438 Z M 624.800781 178.398438 "/>
<path style=" stroke:none;fill-rule:nonzero;fill:rgb(25%,25%,25%);fill-opacity:1;" d="M 672.800781 178.398438 L 706.398438 178.398438 C 708.171875 178.398438 709.601562 179.828125 709.601562 181.601562 C 709.601562 183.371094 708.171875 184.800781 706.398438 184.800781 L 672.800781 184.800781 C 671.027344 184.800781 669.601562 183.371094 669.601562 181.601562 C 669.601562 179.828125 671.027344 178.398438 672.800781 178.398438 Z M 672.800781 178.398438 "/>
<path style=" stroke:none;fill-rule:nonzero;fill:rgb(25%,25%,25%);fill-opacity:1;" d="M 720.800781 178.398438 L 738.398438 178.398438 C 740.171875 178.398438 741.601562 179.828125 741.601562 181.601562 C 741.601562 183.371094 740.171875 184.800781 738.398438 184.800781 L 720.800781 184.800781 C 719.027344 184.800781 717.601562 183.371094 717.601562 181.601562 C 717.601562 179.828125 719.027344 178.398438 720.800781 178.398438 Z M 720.800781 178.398438 "/>
<path style=" stroke:none;fill-rule:nonzero;fill:rgb(25%,25%,25%);fill-opacity:1;" d="M 624.800781 210.398438 L 698.398438 210.398438 C 700.171875 210.398438 701.601562 211.828125 701.601562 213.601562 C 701.601562 215.371094 700.171875 216.800781 698.398438 216.800781 L 624.800781 216.800781 C 623.027344 216.800781 621.601562 215.371094 621.601562 213.601562 C 621.601562 211.828125 623.027344 210.398438 624.800781 210.398438 Z M 624.800781 210.398438 "/>
<path style=" stroke:none;fill-rule:nonzero;fill:rgb(25%,25%,25%);fill-opacity:1;" d="M 712.800781 210.398438 L 762.398438 210.398438 C 764.171875 210.398438 765.601562 211.828125 765.601562 213.601562 C 765.601562 215.371094 764.171875 216.800781 762.398438 216.800781 L 712.800781 216.800781 C 711.027344 216.800781 709.601562 215.371094 709.601562 213.601562 C 709.601562 211.828125 711.027344 210.398438 712.800781 210.398438 Z M 712.800781 210.398438 "/>
<path style=" stroke:none;fill-rule:nonzero;fill:rgb(25%,25%,25%);fill-opacity:1;" d="M 624.800781 242.398438 L 698.398438 242.398438 C 700.171875 242.398438 701.601562 243.828125 701.601562 245.601562 C 701.601562 247.371094 700.171875 248.800781 698.398438 248.800781 L 624.800781 248.800781 C 623.027344 248.800781 621.601562 247.371094 621.601562 245.601562 C 621.601562 243.828125 623.027344 242.398438 624.800781 242.398438 Z M 624.800781 242.398438 "/>
<path style=" stroke:none;fill-rule:nonzero;fill:rgb(73%,73%,73%);fill-opacity:1;" d="M 712.800781 242.398438 L 810.398438 242.398438 C 812.171875 242.398438 813.601562 243.828125 813.601562 245.601562 C 813.601562 247.371094 812.171875 248.800781 810.398438 248.800781 L 712.800781 248.800781 C 711.027344 248.800781 709.601562 247.371094 709.601562 245.601562 C 709.601562 243.828125 711.027344 242.398438 712.800781 242.398438 Z M 712.800781 242.398438 "/>
<path style=" stroke:none;fill-rule:nonzero;fill:rgb(25%,25%,25%);fill-opacity:1;" d="M 624.800781 274.398438 L 674.398438 274.398438 C 676.171875 274.398438 677.601562 275.828125 677.601562 277.601562 C 677.601562 279.371094 676.171875 280.800781 674.398438 280.800781 L 624.800781 280.800781 C 623.027344 280.800781 621.601562 279.371094 621.601562 277.601562 C 621.601562 275.828125 623.027344 274.398438 624.800781 274.398438 Z M 624.800781 274.398438 "/>
<path style=" stroke:none;fill-rule:nonzero;fill:rgb(73%,73%,73%);fill-opacity:1;" d="M 688.800781 274.398438 L 738.398438 274.398438 C 740.171875 274.398438 741.601562 275.828125 741.601562 277.601562 C 741.601562 279.371094 740.171875 280.800781 738.398438 280.800781 L 688.800781 280.800781 C 687.027344 280.800781 685.601562 279.371094 685.601562 277.601562 C 685.601562 275.828125 687.027344 274.398438 688.800781 274.398438 Z M 688.800781 274.398438 "/>
<path style=" stroke:none;fill-rule:nonzero;fill:rgb(25%,25%,25%);fill-opacity:1;" d="M 752.800781 274.398438 L 778.398438 274.398438 C 780.171875 274.398438 781.601562 275.828125 781.601562 277.601562 C 781.601562 279.371094 780.171875 280.800781 778.398438 280.800781 L 752.800781 280.800781 C 751.027344 280.800781 749.601562 279.371094 749.601562 277.601562 C 749.601562 275.828125 751.027344 274.398438 752.800781 274.398438 Z M 752.800781 274.398438 "/>
<path style=" stroke:none;fill-rule:nonzero;fill:rgb(25%,25%,25%);fill-opacity:1;" d="M 624.800781 306.398438 L 722.398438 306.398438 C 724.171875 306.398438 725.601562 307.828125 725.601562 309.601562 C 725.601562 311.371094 724.171875 312.800781 722.398438 312.800781 L 624.800781 312.800781 C 623.027344 312.800781 621.601562 311.371094 621.601562 309.601562 C 621.601562 307.828125 623.027344 306.398438 624.800781 306.398438 Z M 624.800781 306.398438 "/>
<path style=" stroke:none;fill-rule:nonzero;fill:rgb(73%,73%,73%);fill-opacity:1;" d="M 624.800781 338.398438 L 666.398438 338.398438 C 668.171875 338.398438 669.601562 339.828125 669.601562 341.601562 C 669.601562 343.371094 668.171875 344.800781 666.398438 344.800781 L 624.800781 344.800781 C 623.027344 344.800781 621.601562 343.371094 621.601562 341.601562 C 621.601562 339.828125 623.027344 338.398438 624.800781 338.398438 Z M 624.800781 338.398438 "/>
<path style="fill-rule:nonzero;fill:rgb(39%,39%,39%);stroke-opacity:1;stroke-miterlimit:4;" d="M 1713.601562 292 L 1275.199219 292 L 1275.199219 603.996094 C 1275.199219 610.183594 1277.707031 615.785156 1281.761719 619.839844 C 1285.816406 623.894531 1291.417969 626.398438 1297.609375 626.398438 L 1691.191406 626.398438 C 1697.382812 626.398438 1702.984375 623.894531 1707.039062 619.839844 C 1711.09375 615.785156 1713.601562 610.183594 1713.601562 603.996094 Z M 1713.601562 292 "/>
<path style="fill-rule:nonzero;fill:rgb(11%,11%,11%);stroke-opacity:1;stroke-miterlimit:4;" d="M 1691.191406 252 L 1297.609375 252 C 1291.417969 252 1285.816406 254.507812 1281.761719 258.558594 C 1277.707031 262.609375 1275.199219 268.210938 1275.199219 274.394531 L 1275.199219 298.398438 L 1713.601562 298.398438 L 1713.601562 274.394531 C 1713.601562 268.210938 1711.089844 262.609375 1707.035156 258.558594 C 1702.980469 254.507812 1697.378906 252 1691.191406 252 Z M 1691.191406 252 "/>
<path style=" stroke:none;fill-rule:nonzero;fill:rgb(100%,100%,100%);fill-opacity:1;" d="M 1316.800781 275.199219 C 1316.800781 279.175781 1313.578125 282.398438 1309.601562 282.398438 C 1305.625 282.398438 1302.398438 279.175781 1302.398438 275.199219 C 1302.398438 271.222656 1305.625 268 1309.601562 268 C 1313.578125 268 1316.800781 271.222656 1316.800781 275.199219 Z M 1316.800781 275.199219 "/>
<path style=" stroke:none;fill-rule:nonzero;fill:rgb(25%,25%,25%);fill-opacity:1;" d="M 1340.800781 275.199219 C 1340.800781 279.175781 1337.578125 282.398438 1333.601562 282.398438 C 1329.625 282.398438 1326.398438 279.175781 1326.398438 275.199219 C 1326.398438 271.222656 1329.625 268 1333.601562 268 C 1337.578125 268 1340.800781 271.222656 1340.800781 275.199219 Z M 1340.800781 275.199219 "/>
<path style=" stroke:none;fill-rule:nonzero;fill:rgb(73%,73%,73%);fill-opacity:1;" d="M 1364.800781 275.199219 C 1364.800781 279.175781 1361.578125 282.398438 1357.601562 282.398438 C 1353.625 282.398438 1350.398438 279.175781 1350.398438 275.199219 C 1350.398438 271.222656 1353.625 268 1357.601562 268 C 1361.578125 268 1364.800781 271.222656 1364.800781 275.199219 Z M 1364.800781 275.199219 "/>
<path style="fill:none;stroke-width:7.2;stroke-linecap:butt;stroke-linejoin:miter;stroke:rgb(25%,25%,25%);stroke-opacity:1;stroke-miterlimit:4;" d="M 1626.398438 459.199219 C 1626.398438 503.382812 1590.582031 539.199219 1546.398438 539.199219 C 1502.21875 539.199219 1466.398438 503.382812 1466.398438 459.199219 C 1466.398438 415.015625 1502.21875 379.199219 1546.398438 379.199219 C 1590.582031 379.199219 1626.398438 415.015625 1626.398438 459.199219 Z M 1626.398438 459.199219 "/>
<path style="fill-rule:nonzero;fill:rgb(92%,92%,92%);stroke-opacity:1;stroke-miterlimit:4;" d="M 1537.601562 369.601562 L 1556.800781 369.601562 L 1556.800781 388.800781 L 1537.601562 388.800781 Z M 1537.601562 369.601562 "/>
<path style="fill-rule:nonzero;fill:rgb(92%,92%,92%);stroke-opacity:1;stroke-miterlimit:4;" d="M 1536.800781 529.601562 L 1556 529.601562 L 1556 548.800781 L 1536.800781 548.800781 Z M 1536.800781 529.601562 "/>
<path style="fill-rule:nonzero;fill:rgb(92%,92%,92%);stroke-opacity:1;stroke-miterlimit:4;" d="M 1456.800781 450.398438 L 1476 450.398438 L 1476 469.601562 L 1456.800781 469.601562 Z M 1456.800781 450.398438 "/>
<path style="fill:none;stroke-width:6.4;stroke-linecap:square;stroke-linejoin:miter;stroke:rgb(11%,11%,11%);stroke-opacity:1;stroke-miterlimit:4;" d="M 1626.398438 387.199219 L 1626.398438 447.199219 "/>
<path style="fill:none;stroke-width:6.4;stroke-linecap:square;stroke-linejoin:miter;stroke:rgb(11%,11%,11%);stroke-opacity:1;stroke-miterlimit:4;" d="M 1626.398438 471.199219 L 1626.398438 531.199219 "/>
<path style=" stroke:none;fill-rule:nonzero;fill:rgb(11%,11%,11%);fill-opacity:1;" d="M 1636 384.800781 C 1636 390.101562 1631.703125 394.398438 1626.398438 394.398438 C 1621.097656 394.398438 1616.800781 390.101562 1616.800781 384.800781 C 1616.800781 379.5 1621.097656 375.199219 1626.398438 375.199219 C 1631.703125 375.199219 1636 379.5 1636 384.800781 Z M 1636 384.800781 "/>
<path style=" stroke:none;fill-rule:nonzero;fill:rgb(11%,11%,11%);fill-opacity:1;" d="M 1636 536.800781 C 1636 542.101562 1631.703125 546.398438 1626.398438 546.398438 C 1621.097656 546.398438 1616.800781 542.101562 1616.800781 536.800781 C 1616.800781 531.5 1621.097656 527.199219 1626.398438 527.199219 C 1631.703125 527.199219 1636 531.5 1636 536.800781 Z M 1636 536.800781 "/>
<path style="fill-rule:nonzero;fill:rgb(92%,92%,92%);stroke-opacity:1;stroke-miterlimit:4;" d="M 1616 450.398438 L 1635.199219 450.398438 L 1635.199219 469.601562 L 1616 469.601562 Z M 1616 450.398438 "/>
<path style=" stroke:none;fill-rule:nonzero;fill:rgb(11%,11%,11%);fill-opacity:1;" d="M 1360 359.199219 L 1396.800781 359.199219 C 1402.117188 359.199219 1406.398438 363.480469 1406.398438 368.800781 L 1406.398438 405.601562 C 1406.398438 410.917969 1402.117188 415.199219 1396.800781 415.199219 L 1360 415.199219 C 1354.679688 415.199219 1350.398438 410.917969 1350.398438 405.601562 L 1350.398438 368.800781 C 1350.398438 363.480469 1354.679688 359.199219 1360 359.199219 Z M 1360 359.199219 "/>
<path style=" stroke:none;fill-rule:nonzero;fill:rgb(73%,73%,73%);fill-opacity:1;" d="M 1360 431.199219 L 1396.800781 431.199219 C 1402.117188 431.199219 1406.398438 435.480469 1406.398438 440.800781 L 1406.398438 477.601562 C 1406.398438 482.917969 1402.117188 487.199219 1396.800781 487.199219 L 1360 487.199219 C 1354.679688 487.199219 1350.398438 482.917969 1350.398438 477.601562 L 1350.398438 440.800781 C 1350.398438 435.480469 1354.679688 431.199219 1360 431.199219 Z M 1360 431.199219 "/>
<path style=" stroke:none;fill-rule:nonzero;fill:rgb(25%,25%,25%);fill-opacity:1;" d="M 1360 503.199219 L 1396.800781 503.199219 C 1402.117188 503.199219 1406.398438 507.480469 1406.398438 512.800781 L 1406.398438 549.601562 C 1406.398438 554.917969 1402.117188 559.199219 1396.800781 559.199219 L 1360 559.199219 C 1354.679688 559.199219 1350.398438 554.917969 1350.398438 549.601562 L 1350.398438 512.800781 C 1350.398438 507.480469 1354.679688 503.199219 1360 503.199219 Z M 1360 503.199219 "/>
<path style="fill-rule:nonzero;fill:rgb(39%,39%,39%);stroke-opacity:1;stroke-miterlimit:4;" d="M 1991.199219 728.800781 C 1991.199219 755.308594 1969.710938 776.800781 1943.199219 776.800781 C 1916.691406 776.800781 1895.199219 755.308594 1895.199219 728.800781 C 1895.199219 702.289062 1916.691406 680.800781 1943.199219 680.800781 C 1969.710938 680.800781 1991.199219 702.289062 1991.199219 728.800781 Z M 1991.199219 728.800781 "/>
<path style="fill-rule:nonzero;fill:rgb(39%,39%,39%);stroke-opacity:1;stroke-miterlimit:4;" d="M 1971.199219 728.800781 C 1971.199219 744.265625 1958.664062 756.800781 1943.199219 756.800781 C 1927.734375 756.800781 1915.199219 744.265625 1915.199219 728.800781 C 1915.199219 713.335938 1927.734375 700.800781 1943.199219 700.800781 C 1958.664062 700.800781 1971.199219 713.335938 1971.199219 728.800781 Z M 1971.199219 728.800781 "/>
<path style="fill-rule:nonzero;fill:rgb(39%,39%,39%);stroke-opacity:1;stroke-miterlimit:4;" d="M 1895.199219 656 C 1895.199219 664.835938 1888.035156 672 1879.199219 672 C 1870.363281 672 1863.199219 664.835938 1863.199219 656 C 1863.199219 647.164062 1870.363281 640 1879.199219 640 C 1888.035156 640 1895.199219 647.164062 1895.199219 656 Z M 1895.199219 656 "/>
<path style="fill-rule:nonzero;fill:rgb(39%,39%,39%);stroke-opacity:1;stroke-miterlimit:4;" d="M 1944.742188 652 L 1808.800781 652 C 1807.917969 652 1807.117188 652.359375 1806.539062 652.9375 C 1805.957031 653.515625 1805.601562 654.316406 1805.601562 655.199219 L 1805.601562 789.601562 C 1805.601562 794.019531 1807.390625 798.019531 1810.285156 800.914062 C 1813.183594 803.808594 1817.183594 805.601562 1821.601562 805.601562 L 1931.945312 805.601562 C 1936.363281 805.601562 1940.363281 803.808594 1943.257812 800.914062 C 1946.152344 798.019531 1947.945312 794.019531 1947.945312 789.601562 L 1947.945312 655.199219 C 1947.945312 654.316406 1947.585938 653.515625 1947.007812 652.9375 C 1946.425781 652.359375 1945.628906 652 1944.742188 652 Z M 1944.742188 652 "/>
<path style="fill-rule:nonzero;fill:rgb(20%,20%,20%);stroke-opacity:1;stroke-miterlimit:4;" d="M 1908.800781 695.199219 L 1880 695.199219 C 1878.234375 695.199219 1876.632812 695.917969 1875.472656 697.074219 C 1874.316406 698.234375 1873.601562 699.832031 1873.601562 701.601562 L 1873.601562 740 C 1873.601562 741.765625 1874.316406 743.367188 1875.472656 744.527344 C 1876.632812 745.683594 1878.234375 746.398438 1880 746.398438 L 1908.800781 746.398438 C 1910.566406 746.398438 1912.167969 745.683594 1913.324219 744.527344 C 1914.484375 743.367188 1915.199219 741.765625 1915.199219 740 L 1915.199219 701.601562 C 1915.199219 699.832031 1914.484375 698.234375 1913.324219 697.074219 C 1912.167969 695.917969 1910.566406 695.199219 1908.800781 695.199219 Z M 1908.800781 695.199219 "/>
<path style="fill:none;stroke-width:6.4;stroke-linecap:square;stroke-linejoin:miter;stroke:rgb(11%,11%,11%);stroke-opacity:1;stroke-miterlimit:4;" d="M 1894 653.199219 L 1894 689.601562 "/>
<path style="fill-rule:nonzero;fill:rgb(39%,39%,39%);stroke-opacity:1;stroke-miterlimit:4;" d="M 1714.398438 761.761719 C 1701.410156 761.761719 1689.648438 767.023438 1681.136719 775.539062 C 1673.367188 783.308594 1668.300781 793.789062 1667.476562 805.441406 L 1761.320312 805.441406 C 1760.5 793.789062 1755.433594 783.308594 1747.664062 775.539062 C 1739.148438 767.023438 1727.390625 761.761719 1714.398438 761.761719 Z M 1714.398438 761.761719 "/>
<path style=" stroke:none;fill-rule:nonzero;fill:rgb(11%,11%,11%);fill-opacity:1;" d="M 1714.398438 762.398438 C 1716.171875 762.398438 1717.601562 763.828125 1717.601562 765.601562 L 1717.601562 769.601562 C 1717.601562 771.371094 1716.171875 772.800781 1714.398438 772.800781 C 1712.628906 772.800781 1711.199219 771.371094 1711.199219 769.601562 L 1711.199219 765.601562 C 1711.199219 763.828125 1712.628906 762.398438 1714.398438 762.398438 Z M 1714.398438 762.398438 "/>
<path style="fill-rule:nonzero;fill:rgb(22%,22%,22%);stroke-opacity:1;stroke-miterlimit:4;" d="M 244 711.199219 L 50.402344 711.199219 C 37.367188 711.199219 25.566406 716.484375 17.023438 725.023438 C 8.484375 733.566406 3.199219 745.367188 3.199219 758.402344 C 3.199219 771.433594 8.484375 783.234375 17.023438 791.777344 C 25.566406 800.316406 37.367188 805.601562 50.402344 805.601562 L 244 805.601562 C 245.324219 805.601562 246.527344 805.0625 247.394531 804.195312 C 248.261719 803.328125 248.800781 802.125 248.800781 800.800781 L 248.800781 793.371094 C 248.800781 791.691406 248.152344 790.15625 247.082031 789.007812 C 246.015625 787.863281 244.527344 787.105469 242.855469 786.988281 C 231.78125 786.199219 223.546875 783.390625 218.027344 778.820312 C 212.210938 774.007812 209.199219 767.238281 209.199219 758.402344 C 209.199219 749.550781 212.21875 742.714844 218.101562 737.785156 C 223.660156 733.128906 231.960938 730.167969 243.160156 729.164062 C 244.761719 728.972656 246.167969 728.199219 247.175781 727.066406 C 248.191406 725.929688 248.800781 724.433594 248.800781 722.808594 L 248.800781 716 C 248.800781 714.675781 248.261719 713.472656 247.394531 712.605469 C 246.527344 711.738281 245.324219 711.199219 244 711.199219 Z M 244 711.199219 "/>
<path style="fill-rule:nonzero;fill:rgb(39%,39%,39%);stroke-opacity:1;stroke-miterlimit:4;" d="M 234.230469 729.601562 L 49.601562 729.601562 C 41.648438 729.601562 34.445312 732.824219 29.234375 738.035156 C 24.023438 743.246094 20.800781 750.445312 20.800781 758.398438 C 20.800781 766.351562 24.023438 773.554688 29.234375 778.765625 C 34.445312 783.976562 41.648438 787.199219 49.601562 787.199219 C 136.71875 787.199219 198.664062 787.367188 235.4375 787.699219 C 229 785.960938 221.617188 783.496094 216.375 778.113281 C 212.164062 773.789062 209.199219 767.628906 209.199219 758.398438 C 209.199219 749.082031 212.222656 742.902344 216.496094 738.59375 C 221.398438 733.644531 228.140625 731.234375 234.230469 729.601562 Z M 234.230469 729.601562 "/>
<path style=" stroke:none;fill-rule:nonzero;fill:rgb(11%,11%,11%);fill-opacity:1;" d="M 46.339844 765.601562 L 208.058594 765.601562 C 209.792969 765.601562 211.199219 767.03125 211.199219 768.800781 C 211.199219 770.566406 209.792969 772 208.058594 772 L 46.339844 772 C 44.605469 772 43.199219 770.566406 43.199219 768.800781 C 43.199219 767.03125 44.605469 765.601562 46.339844 765.601562 Z M 46.339844 765.601562 "/>
<path style=" stroke:none;fill-rule:nonzero;fill:rgb(11%,11%,11%);fill-opacity:1;" d="M 46.339844 744.800781 L 208.058594 744.800781 C 209.792969 744.800781 211.199219 746.234375 211.199219 748 C 211.199219 749.765625 209.792969 751.199219 208.058594 751.199219 L 46.339844 751.199219 C 44.605469 751.199219 43.199219 749.765625 43.199219 748 C 43.199219 746.234375 44.605469 744.800781 46.339844 744.800781 Z M 46.339844 744.800781 "/>
<path style=" stroke:none;fill-rule:nonzero;fill:rgb(11%,11%,11%);fill-opacity:1;" d="M 200.125 551.484375 L 188.34375 541.015625 C 182.089844 535.457031 175.851562 529.882812 169.59375 524.328125 C 168.160156 523.0625 166.726562 521.78125 165.308594 520.515625 L 165.308594 525.558594 L 177.085938 515.085938 C 183.34375 509.527344 189.582031 503.957031 195.839844 498.398438 C 197.273438 497.132812 198.707031 495.851562 200.125 494.589844 C 201.523438 493.339844 201.503906 490.796875 200.125 489.546875 C 198.636719 488.175781 196.554688 488.210938 195.050781 489.546875 L 183.273438 500.019531 C 177.015625 505.574219 170.777344 511.148438 164.519531 516.707031 C 163.085938 517.96875 161.652344 519.253906 160.234375 520.515625 C 158.855469 521.746094 158.855469 524.328125 160.234375 525.558594 L 172.011719 536.027344 C 178.269531 541.585938 184.507812 547.15625 190.765625 552.714844 C 192.199219 553.980469 193.632812 555.261719 195.050781 556.523438 C 196.449219 557.773438 198.761719 558.003906 200.125 556.523438 C 201.378906 555.171875 201.613281 552.820312 200.125 551.484375 Z M 200.125 551.484375 "/>
<path style=" stroke:none;fill-rule:nonzero;fill:rgb(11%,11%,11%);fill-opacity:1;" d="M 259.910156 494.597656 L 271.6875 505.066406 C 277.945312 510.625 284.183594 516.199219 290.4375 521.753906 C 291.871094 523.019531 293.308594 524.300781 294.722656 525.566406 L 294.722656 520.527344 L 282.945312 530.996094 C 276.6875 536.554688 270.449219 542.125 264.191406 547.683594 C 262.757812 548.949219 261.324219 550.230469 259.910156 551.492188 C 258.511719 552.742188 258.527344 555.285156 259.910156 556.535156 C 261.398438 557.90625 263.476562 557.871094 264.980469 556.535156 L 276.761719 546.0625 C 283.015625 540.507812 289.253906 534.933594 295.511719 529.375 C 296.945312 528.113281 298.378906 526.828125 299.796875 525.566406 C 301.175781 524.335938 301.175781 521.753906 299.796875 520.527344 L 288.019531 510.054688 C 281.761719 504.496094 275.523438 498.925781 269.265625 493.367188 C 267.832031 492.101562 266.398438 490.820312 264.980469 489.558594 C 263.582031 488.308594 261.269531 488.078125 259.910156 489.558594 C 258.652344 490.910156 258.421875 493.261719 259.910156 494.597656 Z M 259.910156 494.597656 "/>
<path style=" stroke:none;fill-rule:nonzero;fill:rgb(11%,11%,11%);fill-opacity:1;" d="M 217.230469 572.457031 C 218.304688 569.253906 219.363281 566.046875 220.441406 562.824219 C 223.003906 555.113281 225.566406 547.417969 228.128906 539.707031 C 231.214844 530.414062 234.296875 521.132812 237.398438 511.839844 L 245.410156 487.742188 C 246.683594 483.84375 248.117188 479.960938 249.300781 476.007812 L 249.355469 475.847656 C 249.949219 474.085938 248.675781 471.875 246.847656 471.46875 C 244.875 471.023438 243.0625 472.054688 242.4375 473.960938 C 241.359375 477.164062 240.304688 480.371094 239.226562 483.59375 C 236.664062 491.304688 234.101562 499 231.535156 506.710938 C 228.453125 516.003906 225.371094 525.285156 222.269531 534.578125 L 214.253906 558.675781 C 212.980469 562.554688 211.546875 566.4375 210.363281 570.390625 L 210.3125 570.550781 C 209.71875 572.316406 210.992188 574.523438 212.820312 574.933594 C 214.792969 575.378906 216.601562 574.34375 217.230469 572.457031 Z M 217.230469 572.457031 "/>
</g>
</svg>
